PathFileType	4	(X/Y/Z)	C:/Users/beibeiliu/ov580/test_trc/User3\sequence.30_training_dense_left.trc
DataRate	CameraRate	NumFrames	NumMarkers	Units	OrigDataRate	OrigDataStartFrame	OrigNumFrames
120	120	19	19	mm	120	1	74
Frame#	Time	ThumbCMC			ThumbMCP			ThumbIP			ThumbTip			IndexMCP			IndexPIP			IndexTip			MiddleMCP			MiddlePIP			MiddleTip			RingMCP			RingPIP			RingTip			PinkyMCP			PinkyPIP			PinkyTip			BackHand1			BackHand2			BackHand3	
		X0	Y0	Z0	X1	Y1	Z1	X2	Y2	Z2	X3	Y3	Z3	X4	Y4	Z4	X5	Y5	Z5	X6	Y6	Z6	X7	Y7	Z7	X8	Y8	Z8	X9	Y9	Z9	X10	Y10	Z10	X11	Y11	Z11	X12	Y12	Z12	X13	Y13	Z13	X14	Y14	Z14	X15	Y15	Z15	X16	Y16	Z16	X17	Y17	Z17	X18	Y18	Z18	
0	0	-78.3387	19.7215	-21.5268	-59.2142	10.4724	-41.8586	-39.0857	3.53997	-64.2189	-28.5516	-5.79096	-86.4524	-99.6981	34.8748	-97.7898	-91.5968	33.1251	-124.667	-86.5889	23.7416	-154.91	-124.378	34.2414	-104.624	-125.833	28.7572	-134.54	-126.683	10.1383	-162.979	-143.526	25.7822	-98.7001	-148.625	20.9496	-121.052	-153.129	5.79186	-145.274	-165.043	15.4411	-81.5431	-170.672	9.25108	-100.012	-172.131	-2.22333	-123.676	-141.619	38.5464	-47.1237	-142.077	38.1933	-12.0777	-109.774	41.8165	-32.7291	
1	0.00833333	-80.2525	18.6759	-24.4061	-58.9236	11.3017	-43.8263	-44.7432	3.36216	-66.2242	-30.04	-5.81017	-87.0158	-100.889	34.469	-99.774	-94.0787	32.618	-129.51	-89.7383	22.6121	-156.196	-124.503	33.4196	-107.612	-125.413	28.8614	-132.612	-127.493	9.88595	-163.526	-148.372	24.6871	-96.5697	-148.286	19.3834	-121.674	-153.515	2.90099	-150.215	-162.26	14.0906	-78.225	-171.8	6.77169	-105.128	-175.796	-2.16059	-123.192	-144.085	35.8778	-43.7932	-141.855	38.5021	-15.3493	-109.537	40.3655	-35.0915	
2	0.0166667	-80.3312	19.363	-23.2845	-60.7993	12.3016	-42.1411	-40.4414	4.68037	-69.335	-32.0558	-3.7653	-83.8537	-95.534	35.6551	-103.966	-94.3357	33.4393	-128.093	-86.1163	25.5533	-153.13	-126.474	34.6714	-104.99	-125.63	29.2647	-134.378	-124.309	12.9456	-163.428	-142.818	26.4562	-95.9895	-148.767	18.6821	-126.488	-154.084	4.16313	-149.782	-163.739	15.9994	-80.4207	-171.507	7.93429	-103.705	-173.448	-2.66713	-123.489	-144.563	37.7217	-45.2627	-140.933	38.1198	-16.6813	-110.727	41.0323	-33.0882	
3	0.025	-76.1655	21.4861	-28.892	-60.1403	13.4037	-46.3985	-41.372	6.0847	-68.665	-29.9854	-2.34636	-83.4365	-97.7209	36.9191	-104.604	-89.5497	35.2306	-132.441	-91.333	27.1979	-153.463	-123.492	36.4949	-104.859	-125.83	30.5929	-137.376	-127.089	14.3977	-164.775	-142.358	28.4887	-99.7716	-149.328	21.1339	-126.171	-151.753	9.45695	-147.074	-158.475	17.6391	-80.8061	-167.034	12.2595	-105.324	-174.139	1.44735	-125.465	-142.012	38.6281	-49.2767	-143.882	39.5743	-18.4813	-108.508	43.0263	-37.1055	
4	0.0333333	-80.7427	21.1331	-26.8335	-58.4104	14.6727	-49.3455	-38.8669	7.34805	-68.5416	-27.6227	-1.20336	-87.0993	-95.2177	39.3701	-102.487	-91.5414	38.2128	-128.869	-86.8547	30.5389	-154.636	-122.219	39.6954	-111.945	-123.581	31.0056	-140.863	-124.882	16.5133	-165.155	-147.018	28.6991	-99.7384	-148.456	22.4886	-129.376	-153.326	5.81406	-151.412	-164.274	18.4933	-84.3129	-165.643	13.5651	-106.041	-172.81	0.17148	-127.627	-143.071	41.4266	-49.4671	-138.548	41.4012	-21.1255	-109.387	42.9952	-38.0682	
5	0.0416667	-80.3237	23.8158	-32.3524	-60.2694	17.0504	-50.8965	-42.953	9.74603	-75.8801	-30.7088	0.422122	-92.8216	-95.5823	42.5362	-102.544	-95.8354	39.4386	-134.112	-89.2891	31.9358	-155.767	-126.424	40.2651	-111.744	-123.959	32.6856	-139.841	-125.99	9.81172	-164.164	-147.544	30.5584	-101.097	-150.314	20.7375	-130.151	-151.153	1.51365	-148.038	-161.955	21.0999	-85.8307	-165.066	13.8029	-106.916	-166.736	-7.30876	-125.942	-140.374	42.6396	-46.8805	-141.613	40.7422	-19.6478	-106.998	45.4373	-37.3374	
6	0.05	-78.8611	29.0876	-32.7255	-59.9654	20.7324	-54.3969	-48.7775	11.2651	-75.893	-40.7187	3.20546	-97.4578	-101.926	47.0979	-107.654	-94.9029	44.0547	-130.867	-93.4079	31.5839	-155.843	-126.45	40.0871	-113.277	-120.214	28.9858	-138.24	-114.906	-5.30119	-155.979	-141.147	31.1156	-100.669	-143.355	15.1532	-128.161	-133.422	-15.4761	-139.749	-162.291	18.2925	-87.6644	-159.935	3.04818	-112.157	-150.269	-20.1014	-119.04	-140.673	42.0751	-47.1827	-144.81	40.9943	-18.1686	-112.658	50.3381	-35.4095	
7	0.0583333	-81.2511	33.9799	-27.6807	-63.8483	24.9197	-53.0424	-50.1873	18.1063	-82.63	-45.5991	7.57491	-102.585	-103.938	50.917	-105.728	-95.7728	42.8311	-134.877	-92.605	26.4059	-152.889	-122.048	36.443	-113.034	-112.9	17.9319	-134.339	-95.6989	-19.9167	-131.229	-137.329	25.4198	-102.569	-133.343	-0.0797347	-122.08	-117.62	-25.7421	-113.546	-156.731	11.4329	-92.4752	-146.522	-6.13917	-107.556	-125.289	-28.284	-96.1206	-148.548	39.2926	-47.2197	-147.676	38.7683	-19.9727	-114.467	54.6935	-35.2715	
8	0.0666667	-85.1196	35.7789	-27.4496	-69.0816	27.5895	-54.0336	-59.7946	20.4585	-79.7478	-58.5105	9.72545	-105.22	-105.325	51.5322	-100.71	-94.6396	38.2822	-131.165	-78.7552	15.0744	-142.368	-119.408	33.7236	-106.635	-104.869	5.4516	-124.093	-87.9236	-21.1644	-105.285	-133.082	16.7054	-100.89	-119.742	-9.90917	-108.688	-101.138	-24.3013	-83.1618	-150.454	4.09359	-87.9398	-131.484	-14.8147	-97.1691	-114.493	-25.1427	-71.4117	-148.822	37.5893	-47.8916	-151.354	33.8788	-15.452	-120.172	52.199	-31.2107	
9	0.075	-91.5605	34.3364	-18.9814	-69.0444	28.364	-47.059	-58.7557	21.7285	-72.305	-63.858	8.36526	-94.4391	-103.859	47.3586	-95.9074	-93.649	32.4293	-119.068	-74.938	6.43453	-124.5	-114.915	27.8882	-101.292	-95.3176	2.80094	-110.398	-82.748	-19.3877	-82.3835	-125.103	11.0182	-93.5898	-112.173	-16.4088	-92.8079	-99.3319	-21.8971	-60.8249	-141.92	0.0974586	-81.2486	-120.267	-21.8122	-79.2578	-111.979	-19.7824	-51.7195	-154.539	32.2069	-44.0066	-155.842	30.5282	-15.4542	-124.749	50.7498	-24.6207	
10	0.0833333	-95.6465	35.873	-12.2428	-75.2897	28.6404	-36.7118	-63.4599	20.9142	-63.9328	-64.0971	7.40282	-87.7472	-106.751	40.1544	-88.583	-88.4175	26.2897	-107.66	-69.9215	-1.32804	-105.132	-114.66	19.9928	-93.2503	-93.444	-1.71691	-96.2104	-84.4895	-20.7013	-64.1086	-128.357	0.50235	-81.8856	-107.188	-20.708	-77.4169	-97.579	-20.9364	-42.6074	-138.955	-7.57462	-72.403	-115.51	-25.3804	-64.9112	-112.479	-19.5063	-36.4799	-158.289	25.9041	-38.2	-159.762	24.3883	-10.6756	-133.561	47.0601	-19.3401	
11	0.0916667	-104.64	33.6997	-0.0700361	-76.3317	31.6328	-22.6771	-62.0321	23.4349	-48.5423	-63.248	6.92753	-69.1463	-105.066	35.7687	-79.8251	-82.8208	19.8395	-95.427	-65.2905	-0.739126	-89.3475	-114.012	15.0896	-81.627	-88.5647	-8.51254	-82.5257	-79.3633	-20.0578	-44.5866	-125.045	-4.32965	-71.1631	-99.7159	-21.7556	-64.8165	-95.6482	-24.2537	-31.3878	-129.748	-16.0708	-64.5764	-110.972	-27.7633	-53.5333	-111.272	-21.9602	-20.9614	-161.402	19.0507	-34.8999	-167.4	16.8957	-3.89789	-136.769	43.5126	-14.6975	
12	0.1	-109.429	36.3947	2.94106	-82.9934	30.6031	-13.4949	-60.4186	24.0696	-35.1878	-55.4171	6.90185	-55.6909	-101.18	31.5385	-72.8293	-76.2322	18.7985	-84.0643	-57.525	0.31646	-74.4543	-106.638	10.3492	-73.8918	-80.4252	-11.0181	-69.7254	-72.6988	-20.642	-36.0451	-118.759	-11.9339	-63.3341	-90.4065	-24.1184	-50.9894	-90.3717	-22.7538	-18.6421	-128.611	-24.386	-53.4551	-105.225	-32.7926	-42.1267	-105.146	-21.6136	-10.2789	-156.268	14.1502	-31.0681	-167.834	13.6422	2.10487	-142.552	38.8895	-8.94912	
13	0.108333	-112.527	39.4736	10.0497	-81.8542	36.463	-9.5109	-61.5058	27.0702	-30.7518	-53.893	7.2045	-47.5356	-104.786	26.9175	-66.5579	-77.4875	17.2652	-78.6873	-51.8882	-0.239636	-63.4746	-104.118	5.35435	-70.3367	-75.4369	-9.21562	-63.6346	-65.3966	-16.8075	-30.198	-111.948	-13.5824	-57.941	-88.7256	-25.3566	-46.5761	-84.8437	-21.3325	-13.6139	-119.55	-25.5981	-48.8413	-98.0817	-32.8259	-31.0756	-99.9	-21.0431	-5.43153	-156.51	8.00473	-28.2809	-170.021	10.7446	1.07742	-148.782	38.3184	-6.92623	
14	0.116667	-117.138	42.3686	9.42917	-88.0615	38.8857	-5.88215	-65.1963	30.0839	-26.6796	-57.3616	10.6443	-43.4156	-105.816	24.0995	-67.2833	-79.0524	14.9486	-75.9568	-53.7849	2.62181	-61.131	-107.53	5.86195	-65.9923	-76.4696	-6.96471	-61.641	-64.9572	-16.2311	-22.9473	-112.645	-14.5115	-54.4438	-86.666	-25.1328	-41.1446	-83.2811	-19.4596	-11.2911	-119.354	-31.6555	-44.7812	-98.1144	-35.1214	-31.2394	-98.6439	-22.4258	0.97794	-162.346	1.13871	-24.6331	-169.843	6.28846	2.91289	-152.608	33.8945	-9.12303	
15	0.125	-120.32	37.9208	9.78197	-91.8474	33.3745	-8.31824	-68.535	25.9099	-30.6554	-58.4801	7.9934	-41.4564	-108.868	20.9759	-64.9894	-79.542	13.0891	-74.3414	-54.1836	-3.16171	-58.2594	-111.013	-2.44551	-63.4907	-75.0918	-11.2679	-56.4951	-64.5744	-16.5671	-22.5519	-115.225	-20.6525	-50.7723	-87.752	-27.0941	-38.073	-85.5165	-22.678	-5.43736	-120.34	-37.1735	-40.0577	-97.6433	-35.776	-26.23	-97.5251	-22.8696	2.1438	-160.954	-3.58549	-24.663	-172.857	0.638289	5.27638	-155.434	30.864	-11.1558	
16	0.133333	-121.345	33.0674	16.5062	-88.3255	26.9239	-1.06206	-66.61	17.9944	-15.2866	-54.7146	-4.01029	-29.923	-101.873	7.72812	-54.2146	-69.5292	-5.03079	-58.8871	-47.3452	-11.9266	-41.5256	-102.832	-15.8831	-50.7264	-69.5106	-25.6424	-41.2353	-62.0777	-23.2795	-4.91184	-104.265	-29.006	-38.4299	-80.0087	-38.0877	-19.8016	-83.4043	-25.5848	12.9587	-111.616	-45.7507	-26.3112	-91.9066	-44.5165	-11.0363	-94.5669	-29.0711	13.6947	-158.215	-13.1042	-16.5376	-171.41	-5.94919	5.45726	-152.699	20.2467	-9.22175	
17	0.141667	-118.749	32.5907	20.4631	-88.1158	27.7671	15.2028	-60.6177	19.17	4.12113	-43.7127	-2.45952	-5.10626	-83.512	3.11541	-39.9477	-51.1904	-10.8439	-36.4364	-33.7941	-12.5372	-13.5057	-79.6219	-22.847	-35.1738	-53.0151	-26.3059	-18.4968	-58.5059	-20.0658	22.4366	-88.1469	-38.4642	-22.031	-66.8338	-41.8601	-1.46878	-74.5001	-21.7166	26.6287	-99.4209	-49.8273	-11.0584	-78.834	-47.2076	10.6967	-85.8051	-30.5051	29.2616	-143.54	-19.2076	-14.9727	-163.835	-14.7467	5.47271	-145.003	12.6733	-6.23472	
18	0.15	-118.316	42.0806	11.0212	-90.1575	41.5503	5.87611	-57.6428	37.5417	-7.76018	-44.8846	16.3579	-12.2878	-76.9743	13.5922	-43.778	-42.8375	8.35812	-41.8158	-28.7398	6.25794	-13.0041	-72.4593	-9.59349	-40.1795	-43.0086	-13.1123	-17.7248	-53.1674	-4.05026	14.1059	-78.5355	-26.7015	-26.5019	-55.5023	-27.6614	-2.31083	-71.3268	-8.00408	23.3604	-87.0258	-41.0067	-13.6039	-65.9526	-32.715	5.19115	-75.9249	-16.1017	23.2469	-134.543	-13.7674	-18.4554	-158.4	-11.5265	0.170117	-139.18	16.2528	-11.1385	
